<?xml version="1.0" encoding="utf-8"?>
<!-- Generator: Adobe Illustrator 26.3.1, SVG Export Plug-In . SVG Version: 6.00 Build 0)  -->
<svg version="1.2" baseProfile="tiny" id="Layer_1" xmlns="http://www.w3.org/2000/svg" xmlns:xlink="http://www.w3.org/1999/xlink"
	 x="0px" y="0px" viewBox="0 0 1716 1692" overflow="visible" xml:space="preserve">
<image width="642" height="703" xlink:href="AD8E36FD11576E6E.png"  transform="matrix(1 0 0 1 516 574)">
</image>
<path fill="#76EC4B" d="M858.6,537.8c15.8,8.9,31,20,46.3,29.8c21.8,14,44.3,27.2,66.7,40.2c23.4,13.6,47.2,27,71.1,39.6
	c16.7,8.8,33.9,16.9,50.1,26.5c-3.2,92.8-19.9,173.5-55.5,259.3c-8,19.4-17.3,38.3-26.4,57.2c-24-25.1-46.1-52.6-69.3-78.6
	c-27.7-31.2-57-61.6-83.5-93.8l0.1-188C858.3,599.3,857,568.3,858.6,537.8z"/>
<image width="539" height="607" xlink:href="AD8E36FD11576E72.png"  transform="matrix(1 0 0 1 635 442)">
</image>
<image width="405" height="526" xlink:href="AD8E36FD11576E75.png"  transform="matrix(1 0 0 1 529 699)">
</image>
<path fill="#76EC4B" d="M631.1,1070.8c5.2,2.8,24.1,27.4,27.8,33.1c-6.6,9.4-15.8,18.2-23.4,26.9c-18.1,20.9-37.4,43.2-52.4,66.5
	c33.2-24.1,63.7-50.7,93.9-78.3c9,11.3,20.3,20.8,29.8,31.8c-15.4,14-30.1,28.4-46.3,41.4c-49.4,38.5-90.7,59.2-149.7,79.3
	c22.1-56.2,41.9-102.6,78.9-151.1C602.8,1103.2,617.3,1087.3,631.1,1070.8z"/>
<path fill="#76EC4B" d="M613.6,470.8c9.5,9.3,17.3,20.7,26.3,30.6c-0.1,0.1-0.2,0.1-0.3,0.2c-18.2,12-36.7,30.4-53.7,44.6
	c-46,38.4-91.4,78-138.9,114.5l-0.6,0.1c-5.3-3-19.1-22.5-24.9-28.8C487.5,580.5,549.8,524.8,613.6,470.8z"/>
<path fill="#76EC4B" d="M1099,471.4c8.4,5.6,16.2,13.4,23.9,20c15.8,13.5,31.5,27,47.1,40.7c38.7,33.6,78,66.5,117.8,98.9
	c-4.4,5.8-17.6,26.7-23.2,28.8c-14.4-11.5-28.3-23.7-42.4-35.6l-87.6-72.9c-19.8-16.5-39.7-34.5-60.9-49.1
	C1083.1,493.2,1091.1,481.9,1099,471.4z"/>
<path fill="#76EC4B" d="M364.6,339.7c4.5-0.1,9.4,0.1,13.8,1c0.8,0.2,1.5,0.4,2.3,0.6c0.8,0.2,1.5,0.4,2.2,0.7s1.5,0.5,2.2,0.8
	c0.7,0.3,1.4,0.6,2.2,0.9c0.7,0.3,1.4,0.6,2.1,1c0.7,0.3,1.4,0.7,2.1,1.1c0.7,0.4,1.3,0.8,2,1.2c0.7,0.4,1.3,0.9,1.9,1.3
	c0.6,0.4,1.3,0.9,1.9,1.4c0.6,0.5,1.2,1,1.8,1.5c0.6,0.5,1.2,1,1.7,1.6c0.6,0.5,1.1,1.1,1.6,1.7c0.5,0.6,1.1,1.1,1.6,1.7
	c0.5,0.6,1,1.2,1.5,1.8c0.5,0.6,0.9,1.2,1.4,1.9c0.4,0.6,0.9,1.3,1.3,2c7.5,12.1,7.7,24.6,4.5,38c6.4,7.9,14.2,15.1,21.4,22.3
	c-13.9,11.5-27.8,23.6-41,35.8c-6.8-7.7-12.9-16-19.5-23.9c-12.4,0.4-23.6-1.6-33.7-9.5c-10.3-8.1-16.6-19.7-18.1-32.6
	c-1.5-12.5,1.5-25.8,9.7-35.6C340,346,351.5,341,364.6,339.7z"/>
<path fill="#76EC4B" d="M1332.3,340.4c2.9-0.2,5.8-0.4,8.8-0.5c0.7,0,1.5,0,2.2,0c0.7,0,1.5,0.1,2.2,0.1c0.7,0.1,1.5,0.1,2.2,0.2
	c0.7,0.1,1.4,0.2,2.2,0.3c0.7,0.1,1.4,0.3,2.1,0.5c0.7,0.2,1.4,0.4,2.1,0.6c0.7,0.2,1.4,0.4,2.1,0.7c0.7,0.2,1.4,0.5,2,0.8
	s1.4,0.6,2,0.9c0.7,0.3,1.3,0.6,2,1c0.6,0.3,1.3,0.7,1.9,1.1c0.6,0.4,1.2,0.8,1.9,1.2c0.6,0.4,1.2,0.8,1.8,1.3
	c0.6,0.4,1.2,0.9,1.7,1.3c0.6,0.5,1.1,0.9,1.7,1.4c0.5,0.5,1.1,1,1.6,1.5c0.6,0.6,1.2,1.2,1.7,1.8c0.6,0.6,1.1,1.2,1.6,1.9
	c0.5,0.6,1,1.3,1.5,1.9c0.5,0.7,1,1.3,1.4,2c0.5,0.7,0.9,1.4,1.3,2.1c0.4,0.7,0.8,1.4,1.2,2.2c0.4,0.7,0.8,1.5,1.1,2.2
	c0.4,0.7,0.7,1.5,1,2.3s0.6,1.5,0.9,2.3c0.3,0.8,0.5,1.6,0.8,2.4c0.2,0.8,0.5,1.6,0.7,2.4c0.2,0.8,0.4,1.6,0.6,2.4
	c0.2,0.8,0.3,1.6,0.4,2.4c0.1,0.8,0.2,1.6,0.3,2.5c0.1,0.8,0.1,1.6,0.2,2.5s0.1,1.7,0.1,2.5c-0.1,12.6-4.8,24.3-13.8,33.1
	c-10.5,10.2-22.7,12.8-36.7,12.7c-3.9,5.9-8.2,11.3-12.7,16.8l-6.1,7c-12.9-12.9-27.2-25.1-41.2-36.8l22-21.3l-0.4-1.6
	c-3.4-13.1-2.9-26.3,4.4-38.1C1309.9,349.7,1320.2,343.1,1332.3,340.4z"/>
<path fill="#76EC4B" d="M1229.2,467.5c16.6,12.2,31.2,28.2,47,41.4c-7.3,10.3-16.5,19.9-24.6,29.8c-15.7-15.1-31.7-30.4-48.4-44.4
	C1211.5,485.1,1220.8,476.6,1229.2,467.5z"/>
<path fill="#76EC4B" d="M480.9,467.3c7.7,3.6,21.5,20.1,28.1,26.7c-14.6,10.3-32.6,28.1-45.8,40.8l-1.4,0.6
	c-4.9-2.8-20.2-22-25.7-27.9C451,494.2,466.9,481.6,480.9,467.3z"/>
<path fill="#76EC4B" d="M1264.2,431.2c8.2,4.1,35.4,30.6,44,38.8c-6.6,9.1-14.2,17.6-21.5,26.2c-7.4-5.4-14.2-12.5-21-18.7
	c-8.1-7.4-16.5-14.6-24.2-22.3C1249.4,447.4,1256.9,439.5,1264.2,431.2z"/>
<path fill="#76EC4B" d="M446.1,432.2c4.9,0.9,19.5,19.4,23.5,23.9c-14.5,12.3-28.7,24.9-42.6,38l-0.6,0.2
	c-3.8-1.3-18.1-20.3-22.5-24.9C418.3,457.5,432.3,444.8,446.1,432.2z"/>
<path fill="#76EC4B" d="M1190.6,505c6.9,3.9,44.3,38.5,51.8,46c-4.8,5-8.9,10.8-13.2,16.2c-15.9-16.8-35.1-31.8-52.7-46.9
	C1181.6,515.6,1186,510.2,1190.6,505z"/>
<path fill="#76EC4B" d="M520.9,504.3c4.5,5.3,8.8,10.7,12.9,16.3c-16.6,14.1-32.4,28.9-49.3,42.7c-4.6-4.7-8.6-10.1-12.7-15.3
	C488.5,533.9,504.5,518.9,520.9,504.3z"/>
<path d="M0,1691c13.5-2.2,28.7-0.8,42.4-0.7l80,0.1l294,0l1061.2,0l166,0c11.2,0,64,1.7,71.2-1l-0.1,2.6H0V1691z"/>
<path fill="#FFFFFF" fill-opacity="0.1647" d="M0,0h1715.8l0,0.9c-63.6-1.4-127.5-0.1-191.1-0.1l-379.5,0L0,0.8V0z"/>
</svg>
